<?xml version="1.0" encoding="UTF-8"?>
<svg xmlns="http://www.w3.org/2000/svg" viewBox="0 0 1260 860" font-family="'NVIDIA', 'Inter', 'SF Pro Display', Arial, sans-serif">
  <defs>
    <style type="text/css">
      @font-face { font-family: 'NVIDIA'; font-style: normal; font-weight: 400; src: url('https://images.nvidia.com/etc/designs/nvidiaGDC/clientlibs_base/fonts/nvidia-sans/GLOBAL/NVIDIASans_W_Rg.woff2') format('woff2'); }
      @font-face { font-family: 'NVIDIA'; font-style: normal; font-weight: 700; src: url('https://images.nvidia.com/etc/designs/nvidiaGDC/clientlibs_base/fonts/nvidia-sans/GLOBAL/NVIDIASans_W_Bd.woff2') format('woff2'); }
      @font-face { font-family: 'RobotoMono'; font-style: normal; font-weight: 400; src: url('https://images.nvidia.com/etc/designs/nvidiaGDC/clientlibs_base/fonts/Roboto_Mono/static/RobotoMono-Regular.ttf') format('truetype'); }
    </style>
    <filter id="glow"><feGaussianBlur stdDeviation="3" result="coloredBlur"/><feMerge><feMergeNode in="coloredBlur"/><feMergeNode in="SourceGraphic"/></feMerge></filter>
    <filter id="shadow"><feDropShadow dx="2" dy="4" stdDeviation="4" flood-opacity="0.3"/></filter>
    <marker id="arrow-green" markerWidth="8" markerHeight="8" refX="7" refY="4" orient="auto">
      <path d="M 0 0.5 L 7 4 L 0 7.5" fill="none" stroke="#76B900" stroke-width="1.5" stroke-linecap="round" stroke-linejoin="round"/>
    </marker>
    <pattern id="grid" width="40" height="40" patternUnits="userSpaceOnUse">
      <path d="M 40 0 L 0 0 0 40" fill="none" stroke="#1c2128" stroke-width="0.5"/>
    </pattern>
  </defs>

  <rect width="1260" height="860" fill="#0d1117"/>
  <rect width="1260" height="860" fill="url(#grid)" opacity="0.5"/>

  <!-- Title -->
  <text x="630" y="44" text-anchor="middle" font-size="28" font-weight="500" fill="#ffffff" letter-spacing="-0.5">Thread Hierarchy</text>
  <line x1="420" y1="58" x2="840" y2="58" stroke="#76B900" stroke-width="2" opacity="0.6"/>
  <text x="630" y="84" text-anchor="middle" font-size="16" fill="#b1bac4">Grid  &#x2192;  Blocks  &#x2192;  Warps  &#x2192;  Threads</text>

  <!-- ==================== LEFT: Grid of Blocks (2x2) ==================== -->
  <g transform="translate(40, 120)">
    <rect width="310" height="420" rx="12" fill="#161b22" filter="url(#shadow)"/>
    <rect width="310" height="420" rx="12" fill="none" stroke="#ffffff" stroke-width="2"/>

    <rect x="2" y="2" width="306" height="44" rx="10" fill="#1c2128"/>
    <text x="155" y="32" text-anchor="middle" font-size="17" font-weight="500" fill="#c9d1d9">GRID</text>

    <text x="155" y="74" text-anchor="middle" font-family="'RobotoMono', monospace" font-size="12" fill="#76B900">gridDim = (2, 2, 1)</text>

    <!-- 2x2 blocks -->
    <g transform="translate(20, 96)">
      <!-- Block (0,0) -->
      <rect width="128" height="110" rx="10" fill="#f97583"/>
      <text x="64" y="32" text-anchor="middle" font-size="16" font-weight="700" fill="#ffffff">Block</text>
      <text x="64" y="54" text-anchor="middle" font-size="14" fill="rgba(255,255,255,0.9)">(0, 0)</text>
      <rect x="16" y="68" width="96" height="28" rx="6" fill="rgba(0,0,0,0.3)"/>
      <text x="64" y="87" text-anchor="middle" font-family="'RobotoMono', monospace" font-size="11" fill="#ffffff">256 threads</text>

      <!-- Block (1,0) -->
      <g transform="translate(142, 0)">
        <rect width="128" height="110" rx="10" fill="#56d364"/>
        <text x="64" y="32" text-anchor="middle" font-size="16" font-weight="700" fill="#ffffff">Block</text>
        <text x="64" y="54" text-anchor="middle" font-size="14" fill="rgba(255,255,255,0.9)">(1, 0)</text>
        <rect x="16" y="68" width="96" height="28" rx="6" fill="rgba(0,0,0,0.3)"/>
        <text x="64" y="87" text-anchor="middle" font-family="'RobotoMono', monospace" font-size="11" fill="#ffffff">256 threads</text>
      </g>

      <!-- Block (0,1) -->
      <g transform="translate(0, 126)">
        <rect width="128" height="110" rx="10" fill="#79c0ff"/>
        <text x="64" y="32" text-anchor="middle" font-size="16" font-weight="700" fill="#ffffff">Block</text>
        <text x="64" y="54" text-anchor="middle" font-size="14" fill="rgba(255,255,255,0.9)">(0, 1)</text>
        <rect x="16" y="68" width="96" height="28" rx="6" fill="rgba(0,0,0,0.3)"/>
        <text x="64" y="87" text-anchor="middle" font-family="'RobotoMono', monospace" font-size="11" fill="#ffffff">256 threads</text>
      </g>

      <!-- Block (1,1) - highlighted -->
      <g transform="translate(142, 126)" filter="url(#glow)">
        <rect width="128" height="110" rx="10" fill="#d2a8ff"/>
        <text x="64" y="32" text-anchor="middle" font-size="16" font-weight="700" fill="#ffffff">Block</text>
        <text x="64" y="54" text-anchor="middle" font-size="14" fill="rgba(255,255,255,0.9)">(1, 1)</text>
        <rect x="16" y="68" width="96" height="28" rx="6" fill="rgba(0,0,0,0.3)"/>
        <text x="64" y="87" text-anchor="middle" font-family="'RobotoMono', monospace" font-size="11" fill="#ffffff">256 threads</text>
      </g>
    </g>

    <text x="155" y="400" text-anchor="middle" font-family="'RobotoMono', monospace" font-size="12" fill="#b1bac4">blockIdx = (x, y, z)</text>
  </g>

  <!-- Arrow: Grid -> Block -->
  <line x1="362" y1="330" x2="418" y2="330" stroke="#76B900" stroke-width="2" marker-end="url(#arrow-green)"/>

  <!-- ==================== CENTER: Inside a Block ==================== -->
  <g transform="translate(432, 120)">
    <rect width="400" height="420" rx="12" fill="#161b22" filter="url(#shadow)"/>
    <rect width="400" height="420" rx="12" fill="none" stroke="#d2a8ff" stroke-width="2"/>

    <rect x="2" y="2" width="396" height="44" rx="10" fill="#1c2128"/>
    <text x="200" y="32" text-anchor="middle" font-size="17" font-weight="500" fill="#d2a8ff">BLOCK (1, 1)</text>

    <text x="200" y="74" text-anchor="middle" font-family="'RobotoMono', monospace" font-size="12" fill="#76B900">blockDim = (16, 16, 1)</text>

    <!-- Thread grid with warps -->
    <!-- 16 cells per row, each 15px wide, 2px gap = 17px stride. Total = 16*15 + 15*2 = 270px -->
    <!-- Centered: (400 - 270) / 2 = 65, cells start at x=2 within group, so group x = 63 -->
    <g transform="translate(63, 92)">
      <!-- Row labels -->
      <text x="-6" y="15" text-anchor="end" font-size="10" font-weight="500" fill="#9ca3af">0</text>
      <text x="-6" y="34" text-anchor="end" font-size="10" font-weight="500" fill="#9ca3af">1</text>
      <text x="-6" y="53" text-anchor="end" font-size="10" font-weight="500" fill="#9ca3af">2</text>
      <text x="-6" y="72" text-anchor="end" font-size="10" font-weight="500" fill="#9ca3af">3</text>
      <text x="-6" y="91" text-anchor="end" font-size="10" font-weight="500" fill="#9ca3af">4</text>
      <text x="-6" y="110" text-anchor="end" font-size="10" font-weight="500" fill="#9ca3af">5</text>

      <!-- Warp 0 highlight (rows 0-1): cells y=5..20 and y=24..39, so box y=1..43 -->
      <rect x="-2" y="1" width="276" height="42" rx="5" fill="rgba(249,117,131,0.12)" stroke="#f97583" stroke-width="1" stroke-dasharray="4,2"/>

      <!-- Row 0: 16 cells, stride 17px, cell 15px wide, y=5 -->
      <rect x="2" y="5" width="15" height="15" rx="2" fill="#f97583"/>
      <rect x="19" y="5" width="15" height="15" rx="2" fill="#f97583"/>
      <rect x="36" y="5" width="15" height="15" rx="2" fill="#f97583"/>
      <rect x="53" y="5" width="15" height="15" rx="2" fill="#f97583"/>
      <rect x="70" y="5" width="15" height="15" rx="2" fill="#f97583"/>
      <rect x="87" y="5" width="15" height="15" rx="2" fill="#f97583"/>
      <rect x="104" y="5" width="15" height="15" rx="2" fill="#f97583"/>
      <rect x="121" y="5" width="15" height="15" rx="2" fill="#f97583"/>
      <rect x="138" y="5" width="15" height="15" rx="2" fill="#f97583"/>
      <rect x="155" y="5" width="15" height="15" rx="2" fill="#f97583"/>
      <rect x="172" y="5" width="15" height="15" rx="2" fill="#f97583"/>
      <rect x="189" y="5" width="15" height="15" rx="2" fill="#f97583"/>
      <rect x="206" y="5" width="15" height="15" rx="2" fill="#f97583"/>
      <rect x="223" y="5" width="15" height="15" rx="2" fill="#f97583"/>
      <rect x="240" y="5" width="15" height="15" rx="2" fill="#f97583"/>
      <rect x="257" y="5" width="15" height="15" rx="2" fill="#f97583"/>

      <!-- Row 1: y=24 -->
      <rect x="2" y="24" width="15" height="15" rx="2" fill="#f97583"/>
      <rect x="19" y="24" width="15" height="15" rx="2" fill="#f97583"/>
      <rect x="36" y="24" width="15" height="15" rx="2" fill="#f97583"/>
      <rect x="53" y="24" width="15" height="15" rx="2" fill="#f97583"/>
      <rect x="70" y="24" width="15" height="15" rx="2" fill="#f97583"/>
      <rect x="87" y="24" width="15" height="15" rx="2" fill="#f97583"/>
      <rect x="104" y="24" width="15" height="15" rx="2" fill="#f97583"/>
      <rect x="121" y="24" width="15" height="15" rx="2" fill="#f97583"/>
      <rect x="138" y="24" width="15" height="15" rx="2" fill="#f97583"/>
      <rect x="155" y="24" width="15" height="15" rx="2" fill="#f97583"/>
      <rect x="172" y="24" width="15" height="15" rx="2" fill="#f97583"/>
      <rect x="189" y="24" width="15" height="15" rx="2" fill="#f97583"/>
      <rect x="206" y="24" width="15" height="15" rx="2" fill="#f97583"/>
      <rect x="223" y="24" width="15" height="15" rx="2" fill="#f97583"/>
      <rect x="240" y="24" width="15" height="15" rx="2" fill="#f97583"/>
      <rect x="257" y="24" width="15" height="15" rx="2" fill="#f97583"/>

      <text x="282" y="28" font-size="11" font-weight="600" fill="#f97583">Warp 0</text>

      <!-- Warp 1 (rows 2-3): cells y=46..61 and y=65..80, box y=42..84 -->
      <rect x="-2" y="42" width="276" height="42" rx="5" fill="rgba(86,211,100,0.08)"/>

      <!-- Row 2: y=46 -->
      <rect x="2" y="46" width="15" height="15" rx="2" fill="#56d364"/>
      <rect x="19" y="46" width="15" height="15" rx="2" fill="#56d364"/>
      <rect x="36" y="46" width="15" height="15" rx="2" fill="#56d364"/>
      <rect x="53" y="46" width="15" height="15" rx="2" fill="#56d364"/>
      <rect x="70" y="46" width="15" height="15" rx="2" fill="#56d364"/>
      <rect x="87" y="46" width="15" height="15" rx="2" fill="#56d364"/>
      <rect x="104" y="46" width="15" height="15" rx="2" fill="#56d364"/>
      <rect x="121" y="46" width="15" height="15" rx="2" fill="#56d364"/>
      <rect x="138" y="46" width="15" height="15" rx="2" fill="#56d364"/>
      <rect x="155" y="46" width="15" height="15" rx="2" fill="#56d364"/>
      <rect x="172" y="46" width="15" height="15" rx="2" fill="#56d364"/>
      <rect x="189" y="46" width="15" height="15" rx="2" fill="#56d364"/>
      <rect x="206" y="46" width="15" height="15" rx="2" fill="#56d364"/>
      <rect x="223" y="46" width="15" height="15" rx="2" fill="#56d364"/>
      <rect x="240" y="46" width="15" height="15" rx="2" fill="#56d364"/>
      <rect x="257" y="46" width="15" height="15" rx="2" fill="#56d364"/>

      <!-- Row 3: y=65 -->
      <rect x="2" y="65" width="15" height="15" rx="2" fill="#56d364"/>
      <rect x="19" y="65" width="15" height="15" rx="2" fill="#56d364"/>
      <rect x="36" y="65" width="15" height="15" rx="2" fill="#56d364"/>
      <rect x="53" y="65" width="15" height="15" rx="2" fill="#56d364"/>
      <rect x="70" y="65" width="15" height="15" rx="2" fill="#56d364"/>
      <rect x="87" y="65" width="15" height="15" rx="2" fill="#56d364"/>
      <rect x="104" y="65" width="15" height="15" rx="2" fill="#56d364"/>
      <rect x="121" y="65" width="15" height="15" rx="2" fill="#56d364"/>
      <rect x="138" y="65" width="15" height="15" rx="2" fill="#56d364"/>
      <rect x="155" y="65" width="15" height="15" rx="2" fill="#56d364"/>
      <rect x="172" y="65" width="15" height="15" rx="2" fill="#56d364"/>
      <rect x="189" y="65" width="15" height="15" rx="2" fill="#56d364"/>
      <rect x="206" y="65" width="15" height="15" rx="2" fill="#56d364"/>
      <rect x="223" y="65" width="15" height="15" rx="2" fill="#56d364"/>
      <rect x="240" y="65" width="15" height="15" rx="2" fill="#56d364"/>
      <rect x="257" y="65" width="15" height="15" rx="2" fill="#56d364"/>

      <text x="282" y="69" font-size="11" font-weight="600" fill="#56d364">Warp 1</text>

      <!-- Warp 2 (rows 4-5): cells y=87..102 and y=106..121, box y=83..125 -->
      <rect x="-2" y="83" width="276" height="42" rx="5" fill="rgba(121,192,255,0.08)"/>

      <!-- Row 4: y=87 -->
      <rect x="2" y="87" width="15" height="15" rx="2" fill="#79c0ff"/>
      <rect x="19" y="87" width="15" height="15" rx="2" fill="#79c0ff"/>
      <rect x="36" y="87" width="15" height="15" rx="2" fill="#79c0ff"/>
      <rect x="53" y="87" width="15" height="15" rx="2" fill="#79c0ff"/>
      <rect x="70" y="87" width="15" height="15" rx="2" fill="#79c0ff"/>
      <rect x="87" y="87" width="15" height="15" rx="2" fill="#79c0ff"/>
      <rect x="104" y="87" width="15" height="15" rx="2" fill="#79c0ff"/>
      <rect x="121" y="87" width="15" height="15" rx="2" fill="#79c0ff"/>
      <rect x="138" y="87" width="15" height="15" rx="2" fill="#79c0ff"/>
      <rect x="155" y="87" width="15" height="15" rx="2" fill="#79c0ff"/>
      <rect x="172" y="87" width="15" height="15" rx="2" fill="#79c0ff"/>
      <rect x="189" y="87" width="15" height="15" rx="2" fill="#79c0ff"/>
      <rect x="206" y="87" width="15" height="15" rx="2" fill="#79c0ff"/>
      <rect x="223" y="87" width="15" height="15" rx="2" fill="#79c0ff"/>
      <rect x="240" y="87" width="15" height="15" rx="2" fill="#79c0ff"/>
      <rect x="257" y="87" width="15" height="15" rx="2" fill="#79c0ff"/>

      <!-- Row 5: y=106 -->
      <rect x="2" y="106" width="15" height="15" rx="2" fill="#79c0ff"/>
      <rect x="19" y="106" width="15" height="15" rx="2" fill="#79c0ff"/>
      <rect x="36" y="106" width="15" height="15" rx="2" fill="#79c0ff"/>
      <rect x="53" y="106" width="15" height="15" rx="2" fill="#79c0ff"/>
      <rect x="70" y="106" width="15" height="15" rx="2" fill="#79c0ff"/>
      <rect x="87" y="106" width="15" height="15" rx="2" fill="#79c0ff"/>
      <rect x="104" y="106" width="15" height="15" rx="2" fill="#79c0ff"/>
      <rect x="121" y="106" width="15" height="15" rx="2" fill="#79c0ff"/>
      <rect x="138" y="106" width="15" height="15" rx="2" fill="#79c0ff"/>
      <rect x="155" y="106" width="15" height="15" rx="2" fill="#79c0ff"/>
      <rect x="172" y="106" width="15" height="15" rx="2" fill="#79c0ff"/>
      <rect x="189" y="106" width="15" height="15" rx="2" fill="#79c0ff"/>
      <rect x="206" y="106" width="15" height="15" rx="2" fill="#79c0ff"/>
      <rect x="223" y="106" width="15" height="15" rx="2" fill="#79c0ff"/>
      <rect x="240" y="106" width="15" height="15" rx="2" fill="#79c0ff"/>
      <rect x="257" y="106" width="15" height="15" rx="2" fill="#79c0ff"/>

      <text x="282" y="110" font-size="11" font-weight="600" fill="#79c0ff">Warp 2</text>

      <!-- Remaining warps -->
      <rect x="2" y="133" width="270" height="56" rx="6" fill="#21262d"/>
      <text x="137" y="157" text-anchor="middle" font-size="13" font-weight="500" fill="#9ca3af">. . .  Warps 3&#x2013;7  . . .</text>
      <text x="137" y="178" text-anchor="middle" font-size="12" fill="#9ca3af">160 more threads</text>
    </g>

    <!-- Summary -->
    <text x="200" y="316" text-anchor="middle" font-size="14" fill="#c9d1d9">16 &#x00D7; 16 = <tspan fill="#d2a8ff" font-weight="600">256 threads</tspan></text>
    <text x="200" y="340" text-anchor="middle" font-size="14" fill="#c9d1d9">256 / 32 = <tspan fill="#f97583" font-weight="600">8 warps</tspan></text>

    <text x="200" y="400" text-anchor="middle" font-family="'RobotoMono', monospace" font-size="12" fill="#b1bac4">threadIdx = (x, y, z)</text>
  </g>

  <!-- Arrow: Block -> Warp detail -->
  <line x1="844" y1="330" x2="900" y2="330" stroke="#76B900" stroke-width="2" marker-end="url(#arrow-green)"/>

  <!-- ==================== RIGHT: Single Warp Detail ==================== -->
  <g transform="translate(916, 120)">
    <rect width="300" height="420" rx="12" fill="#161b22" filter="url(#shadow)"/>
    <rect width="300" height="420" rx="12" fill="none" stroke="#f97583" stroke-width="2"/>

    <rect x="2" y="2" width="296" height="44" rx="10" fill="#1c2128"/>
    <text x="150" y="32" text-anchor="middle" font-size="17" font-weight="500" fill="#f97583">WARP 0</text>

    <text x="150" y="74" text-anchor="middle" font-family="'RobotoMono', monospace" font-size="12" fill="#76B900">32 threads (lockstep)</text>

    <!-- 32 thread squares in 4x8 -->
    <g transform="translate(18, 96)">
      <text x="132" y="-8" text-anchor="middle" font-size="11" font-weight="500" fill="#b1bac4">Thread IDs within warp</text>

      <!-- Row 0: threads 0-7 -->
      <rect x="0" y="8" width="28" height="28" rx="4" fill="#f97583"/><text x="14" y="27" text-anchor="middle" font-family="'RobotoMono', monospace" font-size="11" fill="#fff">0</text>
      <rect x="33" y="8" width="28" height="28" rx="4" fill="#f97583"/><text x="47" y="27" text-anchor="middle" font-family="'RobotoMono', monospace" font-size="11" fill="#fff">1</text>
      <rect x="66" y="8" width="28" height="28" rx="4" fill="#f97583"/><text x="80" y="27" text-anchor="middle" font-family="'RobotoMono', monospace" font-size="11" fill="#fff">2</text>
      <rect x="99" y="8" width="28" height="28" rx="4" fill="#f97583"/><text x="113" y="27" text-anchor="middle" font-family="'RobotoMono', monospace" font-size="11" fill="#fff">3</text>
      <rect x="132" y="8" width="28" height="28" rx="4" fill="#f97583"/><text x="146" y="27" text-anchor="middle" font-family="'RobotoMono', monospace" font-size="11" fill="#fff">4</text>
      <rect x="165" y="8" width="28" height="28" rx="4" fill="#f97583"/><text x="179" y="27" text-anchor="middle" font-family="'RobotoMono', monospace" font-size="11" fill="#fff">5</text>
      <rect x="198" y="8" width="28" height="28" rx="4" fill="#f97583"/><text x="212" y="27" text-anchor="middle" font-family="'RobotoMono', monospace" font-size="11" fill="#fff">6</text>
      <rect x="231" y="8" width="28" height="28" rx="4" fill="#f97583"/><text x="245" y="27" text-anchor="middle" font-family="'RobotoMono', monospace" font-size="11" fill="#fff">7</text>

      <!-- Row 1: threads 8-15 -->
      <rect x="0" y="42" width="28" height="28" rx="4" fill="#f97583"/><text x="14" y="61" text-anchor="middle" font-family="'RobotoMono', monospace" font-size="11" fill="#fff">8</text>
      <rect x="33" y="42" width="28" height="28" rx="4" fill="#f97583"/><text x="47" y="61" text-anchor="middle" font-family="'RobotoMono', monospace" font-size="11" fill="#fff">9</text>
      <rect x="66" y="42" width="28" height="28" rx="4" fill="#f97583"/><text x="80" y="61" text-anchor="middle" font-family="'RobotoMono', monospace" font-size="10" fill="#fff">10</text>
      <rect x="99" y="42" width="28" height="28" rx="4" fill="#f97583"/><text x="113" y="61" text-anchor="middle" font-family="'RobotoMono', monospace" font-size="10" fill="#fff">11</text>
      <rect x="132" y="42" width="28" height="28" rx="4" fill="#f97583"/><text x="146" y="61" text-anchor="middle" font-family="'RobotoMono', monospace" font-size="10" fill="#fff">12</text>
      <rect x="165" y="42" width="28" height="28" rx="4" fill="#f97583"/><text x="179" y="61" text-anchor="middle" font-family="'RobotoMono', monospace" font-size="10" fill="#fff">13</text>
      <rect x="198" y="42" width="28" height="28" rx="4" fill="#f97583"/><text x="212" y="61" text-anchor="middle" font-family="'RobotoMono', monospace" font-size="10" fill="#fff">14</text>
      <rect x="231" y="42" width="28" height="28" rx="4" fill="#f97583"/><text x="245" y="61" text-anchor="middle" font-family="'RobotoMono', monospace" font-size="10" fill="#fff">15</text>

      <!-- Row 2: threads 16-23 -->
      <rect x="0" y="76" width="28" height="28" rx="4" fill="#f97583"/><text x="14" y="95" text-anchor="middle" font-family="'RobotoMono', monospace" font-size="10" fill="#fff">16</text>
      <rect x="33" y="76" width="28" height="28" rx="4" fill="#f97583"/><text x="47" y="95" text-anchor="middle" font-family="'RobotoMono', monospace" font-size="10" fill="#fff">17</text>
      <rect x="66" y="76" width="28" height="28" rx="4" fill="#f97583"/><text x="80" y="95" text-anchor="middle" font-family="'RobotoMono', monospace" font-size="10" fill="#fff">18</text>
      <rect x="99" y="76" width="28" height="28" rx="4" fill="#f97583"/><text x="113" y="95" text-anchor="middle" font-family="'RobotoMono', monospace" font-size="10" fill="#fff">19</text>
      <rect x="132" y="76" width="28" height="28" rx="4" fill="#f97583"/><text x="146" y="95" text-anchor="middle" font-family="'RobotoMono', monospace" font-size="10" fill="#fff">20</text>
      <rect x="165" y="76" width="28" height="28" rx="4" fill="#f97583"/><text x="179" y="95" text-anchor="middle" font-family="'RobotoMono', monospace" font-size="10" fill="#fff">21</text>
      <rect x="198" y="76" width="28" height="28" rx="4" fill="#f97583"/><text x="212" y="95" text-anchor="middle" font-family="'RobotoMono', monospace" font-size="10" fill="#fff">22</text>
      <rect x="231" y="76" width="28" height="28" rx="4" fill="#f97583"/><text x="245" y="95" text-anchor="middle" font-family="'RobotoMono', monospace" font-size="10" fill="#fff">23</text>

      <!-- Row 3: threads 24-31 -->
      <rect x="0" y="110" width="28" height="28" rx="4" fill="#f97583"/><text x="14" y="129" text-anchor="middle" font-family="'RobotoMono', monospace" font-size="10" fill="#fff">24</text>
      <rect x="33" y="110" width="28" height="28" rx="4" fill="#f97583"/><text x="47" y="129" text-anchor="middle" font-family="'RobotoMono', monospace" font-size="10" fill="#fff">25</text>
      <rect x="66" y="110" width="28" height="28" rx="4" fill="#f97583"/><text x="80" y="129" text-anchor="middle" font-family="'RobotoMono', monospace" font-size="10" fill="#fff">26</text>
      <rect x="99" y="110" width="28" height="28" rx="4" fill="#f97583"/><text x="113" y="129" text-anchor="middle" font-family="'RobotoMono', monospace" font-size="10" fill="#fff">27</text>
      <rect x="132" y="110" width="28" height="28" rx="4" fill="#f97583"/><text x="146" y="129" text-anchor="middle" font-family="'RobotoMono', monospace" font-size="10" fill="#fff">28</text>
      <rect x="165" y="110" width="28" height="28" rx="4" fill="#f97583"/><text x="179" y="129" text-anchor="middle" font-family="'RobotoMono', monospace" font-size="10" fill="#fff">29</text>
      <rect x="198" y="110" width="28" height="28" rx="4" fill="#f97583"/><text x="212" y="129" text-anchor="middle" font-family="'RobotoMono', monospace" font-size="10" fill="#fff">30</text>
      <rect x="231" y="110" width="28" height="28" rx="4" fill="#f97583"/><text x="245" y="129" text-anchor="middle" font-family="'RobotoMono', monospace" font-size="10" fill="#fff">31</text>
    </g>

    <!-- SIMT callout -->
    <g transform="translate(25, 264)">
      <rect width="250" height="56" rx="8" fill="#0d1117" stroke="#f97583" stroke-width="1"/>
      <text x="125" y="24" text-anchor="middle" font-size="14" font-weight="600" fill="#f97583">Same instruction,</text>
      <text x="125" y="46" text-anchor="middle" font-size="14" font-weight="600" fill="#f97583">different data (SIMT)</text>
    </g>

    <text x="150" y="356" text-anchor="middle" font-size="14" fill="#c9d1d9">All 32 threads execute</text>
    <text x="150" y="378" text-anchor="middle" font-size="14" fill="#c9d1d9">in <tspan fill="#f97583" font-weight="600">lockstep</tspan></text>
  </g>

  <!-- ==================== BOTTOM: Legend ==================== -->
  <g transform="translate(40, 576)">
    <rect width="1180" height="250" rx="12" fill="#161b22" filter="url(#shadow)"/>
    <rect width="1180" height="250" rx="12" fill="none" stroke="#ffffff" stroke-width="2"/>

    <rect x="2" y="2" width="1176" height="44" rx="10" fill="#1c2128"/>
    <text x="590" y="32" text-anchor="middle" font-size="17" font-weight="500" fill="#76B900">cuda-oxide Rust API</text>

    <!-- Mapping table -->
    <g transform="translate(40, 72)">
      <text x="0" y="0" font-size="13" font-weight="600" fill="#b1bac4">CUDA Concept</text>
      <text x="280" y="0" font-size="13" font-weight="600" fill="#b1bac4">cuda-oxide API</text>
      <text x="680" y="0" font-size="13" font-weight="600" fill="#b1bac4">Returns</text>
      <line x1="0" y1="12" x2="1100" y2="12" stroke="#21262d" stroke-width="1"/>

      <text x="0" y="42" font-size="14" fill="#c9d1d9">Global thread index</text>
      <text x="280" y="42" font-family="'RobotoMono', monospace" font-size="13" fill="#79c0ff">thread::index_1d()</text>
      <text x="680" y="42" font-size="13" fill="#b1bac4">blockIdx.x * blockDim.x + threadIdx.x</text>

      <text x="0" y="78" font-size="14" fill="#c9d1d9">Thread position in block</text>
      <text x="280" y="78" font-family="'RobotoMono', monospace" font-size="13" fill="#79c0ff">thread::thread_idx_x()</text>
      <text x="680" y="78" font-family="'RobotoMono', monospace" font-size="13" fill="#b1bac4">threadIdx.x</text>

      <text x="0" y="114" font-size="14" fill="#c9d1d9">Block position in grid</text>
      <text x="280" y="114" font-family="'RobotoMono', monospace" font-size="13" fill="#79c0ff">thread::block_idx_x()</text>
      <text x="680" y="114" font-family="'RobotoMono', monospace" font-size="13" fill="#b1bac4">blockIdx.x</text>

      <text x="0" y="150" font-size="14" fill="#c9d1d9">Threads per block</text>
      <text x="280" y="150" font-family="'RobotoMono', monospace" font-size="13" fill="#79c0ff">thread::block_dim_x()</text>
      <text x="680" y="150" font-family="'RobotoMono', monospace" font-size="13" fill="#b1bac4">blockDim.x</text>
    </g>
  </g>
</svg>
